<svg
    viewBox="0 0 24 24"
    fill="none"
    xmlns="http://www.w3.org/2000/svg"
>
    <rect width="24" height="24" rx="6" fill="black" />
    <path d="M11.167 7.83203H12.8337V12.832H11.167V7.83203Z" fill="white" />
    <path
        d="M12.0007 8.24935C13.6115 8.24935 14.9173 6.94352 14.9173 5.33268C14.9173 3.72185 13.6115 2.41602 12.0007 2.41602C10.3898 2.41602 9.08398 3.72185 9.08398 5.33268C9.08398 6.94352 10.3898 8.24935 12.0007 8.24935Z"
        fill="white"
    />
    <path
        d="M6.16699 20.332H17.8337C19.2144 20.332 20.3337 19.2128 20.3337 17.832H3.66699C3.66744 19.2124 4.7866 20.332 6.16699 20.332Z"
        fill="white"
    />
    <path
        d="M9.50049 12.832C9.50049 13.7525 10.2467 14.4987 11.1672 14.4987H12.8338C13.7543 14.4987 14.5005 13.7525 14.5005 12.832V10.332H18.4393L20.333 16.1654H3.66797L5.56169 10.332H9.50049V12.832Z"
        fill="white"
    />
</svg>